<svg xmlns="http://www.w3.org/2000/svg" viewBox="0 0 64 64">
  <rect width="64" height="64" rx="14" fill="#22333e"/>
  <g fill="#c96f4a">
    <path d="M30.5 31 C 25 19, 13 11.5, 9.5 17 C 6 23, 15.5 31.5, 29.5 33 Z"/>
    <path d="M33.5 31 C 39 19, 51 11.5, 54.5 17 C 58 23, 48.5 31.5, 34.5 33 Z"/>
    <path d="M30 36.5 C 24.5 42, 17 48.5, 16.5 53 C 21.5 56.5, 28.5 50, 30.5 41.5 Z"/>
    <path d="M34 36.5 C 39.5 42, 47 48.5, 47.5 53 C 42.5 56.5, 35.5 50, 33.5 41.5 Z"/>
    <rect x="30.4" y="17" width="3.2" height="32" rx="1.6"/>
  </g>
  <g stroke="#c96f4a" stroke-width="1.6" stroke-linecap="round" fill="none">
    <path d="M31 17 C 28.5 13.5, 26.5 11, 24.5 9.5"/>
    <path d="M33 17 C 35.5 13.5, 37.5 11, 39.5 9.5"/>
  </g>
</svg>
