<svg xmlns="http://www.w3.org/2000/svg" viewBox="0 0 64 64">
<defs>
    <style>
      .st0 {
        fill: #01001e;
      }

      .st1 {
        fill: #af350c;
      }

      .st2 {
        fill: #ebdcd0;
      }
    </style>
  </defs>
<rect width="64" height="64" rx="14" fill="#f6f1ea"/>
<g transform="translate(6.2,14.4) scale(0.1)">
<path class="st0" d="M268.64,158.72c4.72-4.61,8.07-11.36,11.49-17l11.34-18.47c14.57-23.42,30.97-45.95,50.49-65.61,3.89-3.92,8.92-7.16,13.17-10.7,9.49-7.91,19.41-15.27,29.95-21.73C410.94,8.49,437.78,0,468.85.12c11.02.04,44.47-.41,47.17,16.38.54,3.38-1.87,17.84-3.71,20.42-4.79,6.72-7.43,5.55-9.89,14.78-.89,4.08-1.98,5.7-5.47,8.31l-.15.17c-1.51,1.66-3.68,3.43-4.98,5-4.09,4.92-5.82,11.22-5.43,17.55.13,2.07.18,6.24-.58,8.01-3.13,7.28-6.93,6.59-6.36,15.8.82,13.08,5.66,17.31-2.9,29.21,0,2.13.25,19.68-.33,20.76-.01-1.39-.03-2.79-.05-4.18-.35.46,0,3.96-.83,5.21-1.05,2.07-3.36,4.56-4.93,6.38-1.9,3.15-2.48,5.71-4.02,8.8-4.59,10.73-24.84,13.12-34.83,11.76-1.56-.21-3.49-.32-5.06-.33,9.97,7.07,23.39,10.32,25.72,23.8.38,2.22.54,7.2,1.1,8.89,2.44,7.33,5.73,6.17,4.24,14.52-1.06,3.68-1.96,5.63-3.76,9.03-3.23,8.38.45,11.96-1.23,19.91-.69,3.24-5.39,7.93-6.48,12.25-1.47,5.79.45,13.14-2.18,18.31-2.83,5.57-7.12,6.23-9.68,13.18-2.34,6.35-.39,13-1.86,18.28-2.9,10.41-13.25,4.64-20.22,13.57-3,3.84-5.84,11.79-8.85,13.48-3.89,2.19-13.85-.07-18.26,1.52-3.89,1.41-6.32,6.09-9.61,8.18-1.53.97-5.23.11-6.93-.36-7.68-2.11-12.56-7.4-18.94-11.51-2.52-1.62-7.04-2.4-9.81-4.82-2.69-2.35-4.52-5.94-7.08-8.13-4.88-4.18-10.28-5.49-15.18-10.03-5.67-5.24-8.73-10.32-13.14-16.33-4.92-6.12-9.45-13.77-14.26-19.82-7.68-9.69-14.31-16.87-17.85-29.08-.82-2.83-4.13-9.52-5.68-12.36,0,10.27-1.17,20.84-3.07,30.96-.51,2.7-2.55,13.91-7.34,11.14-.61-.35-1.35-2-1.67-2.7-4.1-9.08-3.87-19.41-5.06-29.13-.4-3.32-.85-6.52-1.33-9.8-2.65,7.15-6.72,18.28-10.31,24.82-2.29,4.16-9.14,12.22-12.46,16.71-3.81,5.15-7.57,10.34-11.26,15.57-3.87,5.47-10.37,14.73-15.2,19.17-2.44,2.22-5.12,4.17-7.99,5.8-2.19,1.26-5.75,3.17-7.63,4.73-2.68,2.21-4.49,6.43-7.44,8.55-2.84,2.04-6.88,3.21-9.76,5.06-6.9,4.43-12.39,10.07-20.82,11.66-1.5.28-3.45.75-4.84,0-3.82-2.06-5.17-7.17-9.77-8.41-5.36-1.45-10.88.07-16.34-.43-4.63-.43-5.94-6.89-8.02-10.43-1.58-2.68-2.04-3.34-4.15-5.63-5.27-5.7-13.99-2.56-17.55-9.35-3.68-7,.24-15.27-3.81-22.7-2.11-3.86-5.05-5.62-7.49-8.85-4.82-6.37-1.62-14.31-3.7-21.31-1.32-4.45-5.51-7.81-6.71-12.04-1.06-3.74,1.26-12.68.46-16.11-1.27-5.43-5.62-8.74-5.44-15.61.14-5.06,3.21-6.92,4.48-11.51.7-2.53.98-6.22,1.39-8.93,2.09-13.95,15.5-16.55,25.25-23.55-12.4-.18-30.71,2.2-39.33-10.94-1.64-2.5-2.5-6.33-4.22-8.89-1.04-1.54-2.58-2.97-3.72-4.46-2.99-5.03-.18-14.42-1.5-20.32-1.28-5.73-5.35-9.89-5.92-15.23-.43-3.95,1.2-10.2,1.6-14.09.68-6.57.98-10.16-3.45-15.23-.71-.81-2.29-3.29-2.61-4.37-1.66-5.64.54-10.86-1.42-16.72-2.03-6.06-4.53-9.26-9.48-13.2-1.58-1.26-3.29-2.93-4.49-4.61-2.1-2.93-1.13-6.78-2.59-9.7-1.42-2.84-5.55-5.4-7.4-8.02C.44,32.87-.46,22.1.2,15.29c.28-2.93,2.24-5.74,4.64-7.28C22.31-3.19,55.57-.21,75.04,2.53c18.75,2.63,38.25,11.98,53.84,21.81,3.49,2.2,8.64,5.1,11.84,7.44,4.19,3.07,8.6,6.55,12.76,9.74,6.62,5.08,14.09,10.4,20.04,16.18,12.69,12.31,24.46,27.27,34.87,41.5,9.16,12.52,16.93,26.77,25.34,39.84,3.24,5.03,6.3,10.3,9.69,15.23.83,1.21,2.34,3.23,3.84,3.47l.53-.42c.66-1.78.39-3.81.74-5.66.61-3.19,2.37-4.58,1.45-7.81.64.42,1.16.65,1.85.99l.33-.17c-.06-.7-.09-1.33-.11-2.04.65,1.28.83,1.64,1.2,3.05,2.51-.46,7.29-.45,8.78-.89l.49-.73c1.29.25,1.59.11,2.8-.23-.65,2.04.82,4.36,1.45,6.51.85,2.85,1.33,5.42,1.85,8.35Z"/><path class="st2" d="M475.33,157.53c-.51-4.52-.6-17.74,1.22-21.79,0,2.13.25,19.68-.33,20.76-.01-1.39-.03-2.79-.05-4.18-.35.46,0,3.96-.83,5.21Z"/><path class="st1" d="M453.78,240.38c-.23-.39-.31-.68-.47-1.1.1-1.74,2.23-8.23,3.9-8.56l.32.63c-1.06,3.68-1.96,5.63-3.76,9.03Z"/><path class="st1" d="M496.95,60v-.11c-.01-1.14,4.11-8.17,4.87-8.58l.61.38c-.89,4.08-1.98,5.7-5.47,8.31Z"/><path class="st1" d="M466.37,172.72c-1.02-1.79.99-7.55,2.51-8.82,1.04-.32.66-.37,1.51.02-1.9,3.15-2.48,5.71-4.02,8.8Z"/><path class="st0" d="M249.98,143.86c-2.45-4.29-6.47-14.93-8.83-19.29-2.84-5.25-14.26-44.55-12.77-48.3,2.34-.68,3.16,1.81,3.63,3.62,2.16,8.39,3.05,17.15,5.29,25.51,3.42,12.8,9.02,25.3,14.74,37.24.03.7.06,1.34.11,2.04l-.33.17c-.69-.34-1.21-.57-1.85-.99Z"/><path class="st0" d="M262.52,144.08c9.45-18.42,16.5-37.12,19.56-57.58.32-2.16,1.85-11.45,4.86-10.5,2.05,3.38-9.39,41.63-12.28,47.3-2.29,4.51-6.78,16.73-9.33,20.55-1.22.35-1.51.48-2.8.23Z"/>
</g>
</svg>